# xmcd
#
# Track frame offsets:
#	150
#	22819
#	39893
#	67674
#	90398
#	107778
#	125990
#	145940
#	172275
#	191155
#	210802
#	231347
#	247693
#	267838
#
# Disc length: 3827 seconds
#
# Revision: 2
# Processed by: cddbd v1.5.2PL0 Copyright (c) Steve Scherf et al.
# Submitted via: EasyCDDAExtractor 11.0.3.1
#
DISCID=b70ef10e
DTITLE=Various Artist - Collaborations
DYEAR=2007
DGENRE=Neo-Soul
TTITLE0=Jill Scott  feat. Mos Def - Love Rain (Head Nod Remix)
TTITLE1=Jill Scott  feat. Lupe Fiasco - Daydreaming
TTITLE2=Jill Scott  feat. Chris Botti - Good Morning Heartache
TTITLE3=Jill Scott  feat. The Isley Brothers - Said Enough  
TTITLE4=Jill Scott feat. Eric Roberson - One Time 
TTITLE5=Jill Scott feat. Sergio Mendes and Will.I.Am - Let Me 
TTITLE6=Jill Scott  feat. Common - 8 minutes to sunrise
TTITLE7=Jill Scott  feat. Common and Bilal - Funky for You
TTITLE8=Jill Scott  feat. Darius Rucker - Something I Wonder
TTITLE9=Jill Scott feat. Jeff Bradshaw - Slide 
TTITLE10=Jill Scott feat. Will Smith - The Rain 
TTITLE11=Jill Scott feat. Al Jarreau and George Benson - God bless the Child 
TTITLE12=Jill Scott  feat. Kirk Franklin - Kingdom Come
TTITLE13=Jill Scott feat. Mos Def - Love Rain (Coffee Shop Mix) 
EXTD=
EXTT0=
EXTT1=
EXTT2=
EXTT3=
EXTT4=
EXTT5=
EXTT6=
EXTT7=
EXTT8=
EXTT9=
EXTT10=
EXTT11=
EXTT12=
EXTT13=
PLAYORDER=
